<?xml version="1.0" standalone="no"?><!DOCTYPE svg PUBLIC "-//W3C//DTD SVG 1.1//EN" "http://www.w3.org/Graphics/SVG/1.1/DTD/svg11.dtd"><svg t="1737636821286" class="icon" viewBox="0 0 1024 1024" version="1.1" xmlns="http://www.w3.org/2000/svg" p-id="4188" xmlns:xlink="http://www.w3.org/1999/xlink" width="200" height="200"><path d="M708.9 393.2H329.1c-19.9 0-36.1 16.3-36.1 36.1 0 19.9 16.3 36.1 36.1 36.1h379.7c19.9 0 36.1-16.3 36.1-36.1 0.1-19.8-16.2-36.1-36-36.1zM323.1 627.1h379.7c19.9 0 36.1-16.3 36.1-36.1 0-19.9-16.3-36.1-36.1-36.1H323.1c-19.9 0-36.1 16.3-36.1 36.1s16.3 36.1 36.1 36.1zM702.9 716.4H323.1c-19.9 0-36.1 16.3-36.1 36.1 0 19.9 16.3 36.1 36.1 36.1h379.7c19.9 0 36.1-16.3 36.1-36.1 0.1-19.8-16.2-36.1-36-36.1z" p-id="4189"></path><path d="M789.7 64.2H426.8v0.5c-11.8-1.8-23.8 1.7-32.9 10L173.4 277.3c-9.6 8.8-13.8 21.4-11.9 33.7h-0.5v572.6c0 42 33.8 76.2 75.3 76.2h553.4c41.5 0 75.3-34.2 75.3-76.2V140.4c0-42-33.8-76.2-75.3-76.2zM194.8 307.3c-0.6-1.4-1.1-4 1.4-6.3L416.8 98.3c1.3-1.2 2.7-1.6 3.9-1.6 1 0 1.9 0.3 2.5 0.5 1.3 0.6 3.6 2 3.6 5.3V305c0 3.2-2.7 5.9-6 5.9H200.3c-3.5 0.1-4.9-2.2-5.5-3.6z m627 576.3c0 17.9-14.4 32.5-32.1 32.5H236.3c-17.7 0-32.1-14.6-32.1-32.5V362.3c0-10.4 8.4-18.8 18.8-18.8h197.8c21.7 0 39.4-17.2 39.4-38.4V126.7c0-10.4 8.4-18.8 18.8-18.8h310.7c17.7 0 32.1 14.6 32.1 32.5v743.2z" p-id="4190"></path></svg>